<svg version="1.2" xmlns="http://www.w3.org/2000/svg" viewBox="0 0 16 11" width="16" height="11">
	<title></title>
	<style>
		.s0 { fill: #d3d3d3 } 
	</style>
	<path id="" class="s0" aria-label=""  d="m14.9 3.5c-0.6 0.4-2 1.4-4.2 2.8l-0.3 0.2c-0.4 0.4-0.8 0.6-1.1 0.7-0.4 0.2-0.8 0.4-1.2 0.4-0.4 0-0.8-0.1-1.2-0.4-0.3-0.1-0.6-0.3-1.1-0.6l-0.2-0.3c-2.3-1.4-3.7-2.4-4.3-2.8-0.1-0.1-0.1-0.1-0.2 0-0.1 0-0.1 0-0.1 0.1v5.2c0 0.3 0.1 0.6 0.4 0.8 0.2 0.3 0.6 0.4 0.9 0.4h11.6c0.4 0 0.7-0.1 0.9-0.4 0.3-0.2 0.4-0.5 0.4-0.8v-5.2c0-0.1 0-0.1-0.1-0.2 0 0-0.1 0-0.2 0.1zm-6.8 3.2c-0.2 0-0.5-0.1-0.9-0.3-0.2-0.1-0.5-0.2-0.8-0.5l-0.3-0.2c-2.3-1.5-3.8-2.6-4.7-3.1l-0.2-0.2c-0.1-0.1-0.2-0.2-0.2-0.4v-0.5c0-0.4 0.1-0.7 0.4-0.9 0.2-0.2 0.6-0.4 0.9-0.4h11.6c0.4 0 0.7 0.2 0.9 0.4 0.3 0.2 0.4 0.5 0.4 0.9v0.5c0 0.2-0.1 0.3-0.2 0.4l-0.2 0.1c-0.8 0.6-2.3 1.7-4.7 3.2l-0.2 0.2c-0.4 0.3-0.7 0.4-0.9 0.5-0.4 0.2-0.6 0.4-0.9 0.4z"/>
</svg>