<svg version="1.2" xmlns="http://www.w3.org/2000/svg" viewBox="0 0 47 59" width="47" height="59">
	<title>Forma 1</title>
	<style>
		.s0 { fill: #394f65 } 
	</style>
	<path id="Forma 1" fill-rule="evenodd" class="s0" d="m31.4 25.3l-8.3 8.4c-0.4 0.4-0.8 0.6-1.4 0.6q0 0 0 0c-0.5 0-1-0.2-1.4-0.6l-3.7-3.8c-0.4-0.4-0.6-0.9-0.6-1.4 0-0.6 0.2-1.1 0.6-1.4 0.4-0.4 0.8-0.6 1.4-0.6 0.5 0 1 0.2 1.4 0.5l2.3 2.5 6.9-7c0.4-0.4 0.9-0.6 1.4-0.6 0.5 0 1 0.2 1.4 0.6 0.7 0.8 0.7 2 0 2.8zm13.7 5c-1.4 5.6-3.6 10.6-6.5 14.9-3.7 5.4-8.4 9.7-14.2 12.7q-0.2 0.1-0.4 0.1-0.3 0-0.5-0.1c-5.8-3-10.5-7.3-14.2-12.7-2.9-4.3-5.1-9.3-6.5-14.9-2.4-9.5-1.8-17.2-1.7-17.6 0-0.3 0.2-0.6 0.5-0.8l21.9-10.8c0.3-0.1 0.6-0.1 0.9 0l21.9 10.8c0.3 0.2 0.5 0.5 0.6 0.8 0 0.4 0.6 8.1-1.8 17.6zm-8.2-2.4c0-7.2-5.8-13.2-12.9-13.2-7.2 0-13 6-13 13.2 0 7.3 5.8 13.2 13 13.2 7.1 0 12.9-5.9 12.9-13.2z"/>
</svg>