<svg version="1.2" xmlns="http://www.w3.org/2000/svg" viewBox="0 0 40 54" width="40" height="54">
	<title>Shape 1</title>
	<style>
		.s0 { fill: #3a5065 } 
	</style>
	<path id="Shape 1" fill-rule="evenodd" class="s0" d="m25.8 41.4c2.2 0 4.3-1.1 5.5-2.9v12.5c0 0.7-0.4 1.4-1 1.8-0.7 0.4-1.5 0.5-2.2 0.1l-7.6-3.7-7.7 3.7q-0.5 0.3-1 0.3-0.6 0-1.1-0.4c-0.7-0.4-1.1-1.1-1.1-1.8v-12.5c1.2 1.8 3.3 2.9 5.5 2.9 1 0 2.1-0.2 3-0.7l2.4-1.1 2.3 1.1c1 0.5 2 0.7 3 0.7zm-24.2-24.4l3.4-3.4-0.7-4.8q0-0.1 0-0.2c-0.1-1.1 0.7-2 1.8-2.2l4.8-0.9 2.3-4.2q0-0.1 0.1-0.2 0 0 0 0 0-0.1 0.1-0.1 0-0.1 0-0.1 0.1 0 0.1-0.1 0 0 0.1 0 0-0.1 0.1-0.1 0-0.1 0-0.1 0.2-0.1 0.3-0.2 0 0 0.1 0 0-0.1 0.1-0.1 0 0 0 0 0.1 0 0.2-0.1 0 0 0.1 0 0 0 0.1 0 0 0 0 0 0.1 0 0.2-0.1 0 0 0.1 0 0 0 0.1 0 0.1 0 0.1 0 0 0 0 0 0.1 0 0.1 0 0.1 0 0.1 0 0.1 0 0.1 0 0.1 0.1 0.2 0.1 0 0 0.1 0 0 0 0.1 0 0 0 0.1 0.1 0.1 0 0.2 0 0 0 0 0.1l4.4 2.1 4.3-2.1q0-0.1 0-0.1 0.1 0 0.2 0 0.1-0.1 0.1-0.1 0.1 0 0.2 0 0 0 0.1 0 0 0 0.1-0.1 0 0 0.1 0 0.1 0 0.1 0 0.1 0 0.1 0 0 0 0 0 0.1 0 0.1 0 0.1 0 0.2 0 0 0 0 0 0.1 0.1 0.2 0.1 0 0 0 0 0.1 0 0.2 0 0 0 0 0 0.1 0.1 0.2 0.1 0 0 0 0 0.1 0.1 0.1 0.1 0.1 0 0.1 0 0.1 0.1 0.1 0.1 0 0 0 0 0.1 0.1 0.2 0.1 0 0 0 0.1 0.1 0 0.2 0.1 0 0 0 0 0.1 0.1 0.1 0.1 0 0 0 0.1 0.1 0 0.1 0.1 0 0 0.1 0 0 0.1 0.1 0.2l2.2 4.2 4.8 0.9c1.1 0.2 1.9 1.1 1.9 2.2q0 0.1-0.1 0.2l-0.6 4.8 3.3 3.4c0.4 0.5 0.7 1 0.7 1.6 0 0.5-0.3 1.1-0.7 1.5l-3.3 3.4 0.6 4.8q0.1 0.1 0.1 0.2c0 1.1-0.8 2.1-1.9 2.3l-4.8 0.8-2.2 4.2c-0.4 0.8-1.2 1.2-2 1.2q-0.5 0-1-0.2l-4.3-2.1-4.4 2.1q-0.5 0.2-1 0.2c-0.8 0-1.5-0.4-1.9-1.2l-2.3-4.2-4.8-0.8c-1.1-0.2-1.9-1.2-1.8-2.3q0-0.1 0-0.2l0.7-4.8-3.4-3.4c-0.5-0.5-0.7-1.1-0.6-1.7 0-0.5 0.2-1 0.6-1.4zm10.7 1.5c0 4.5 3.6 8.1 8.2 8.1 4.5 0 8.2-3.6 8.2-8.1 0-4.4-3.7-8.1-8.2-8.1-4.6 0-8.2 3.7-8.2 8.1z"/>
</svg>