<svg version="1.2" xmlns="http://www.w3.org/2000/svg" viewBox="0 0 34 55" width="34" height="55">
	<title>Shape 1</title>
	<style>
		.s0 { fill: #3a5065 } 
	</style>
	<path id="Shape 1" fill-rule="evenodd" class="s0" d="m33.8 18.8v28c0 2-1.6 3.7-3.6 3.7h-0.5v2.6c0 0.5-0.4 0.9-0.8 0.9h-4.2c-0.4 0-0.8-0.4-0.8-0.9v-2.6h-13.1v2.6c0 0.5-0.4 0.9-0.9 0.9h-4.1c-0.5 0-0.9-0.4-0.9-0.9v-2.6h-0.5c-1.9 0-3.6-1.7-3.6-3.7v-28c0-2 1.7-3.7 3.6-3.7h3.2v-9.9c0-2.3 1.9-4.2 4.2-4.2h11.1c2.3 0 4.1 1.9 4.1 4.2v9.9h3.2c2 0 3.6 1.7 3.6 3.7zm-9.5-3.7h-13.9v-9.9c0-0.7 0.6-1.4 1.4-1.4h11.1c0.8 0 1.4 0.7 1.4 1.4z"/>
</svg>