<svg version="1.2" xmlns="http://www.w3.org/2000/svg" viewBox="0 0 101 16" width="101" height="16">
	<title>Holiday Activity copy 84</title>
	<style>
		.s0 { fill: #ffd200 } 
	</style>
	<path id="Holiday Activity copy 84" class="s0" aria-label=""  d="m7.7 1.4c0.1-0.2 0.2-0.4 0.5-0.5 0.2 0 0.4 0 0.7 0 0.2 0.1 0.4 0.3 0.5 0.5l1.9 3.9 4.4 0.6c0.2 0 0.4 0.1 0.6 0.3 0.1 0.2 0.2 0.4 0.2 0.7 0 0.2-0.1 0.4-0.3 0.6l-3.2 3 0.8 4.3c0 0.2 0 0.4-0.2 0.7-0.1 0.2-0.3 0.3-0.5 0.3-0.2 0.1-0.5 0.1-0.7 0l-3.9-2-3.9 2c-0.2 0.1-0.4 0.1-0.7 0-0.2 0-0.4-0.1-0.5-0.3-0.1-0.3-0.2-0.5-0.2-0.7l0.8-4.3-3.2-3c-0.1-0.2-0.2-0.4-0.2-0.6-0.1-0.3 0-0.5 0.2-0.7 0.1-0.2 0.3-0.3 0.6-0.3l4.3-0.6zm21.1 0c0.1-0.3 0.3-0.4 0.5-0.5 0.3-0.1 0.5-0.1 0.7 0 0.2 0.1 0.4 0.2 0.5 0.5l2 3.8 4.3 0.7c0.3 0 0.5 0.1 0.6 0.3 0.2 0.2 0.2 0.4 0.2 0.6 0 0.3-0.1 0.5-0.3 0.7l-3.1 3 0.7 4.3c0.1 0.2 0 0.4-0.1 0.6-0.1 0.2-0.3 0.4-0.5 0.4-0.3 0.1-0.5 0-0.7-0.1l-3.9-2-3.9 2c-0.2 0.1-0.5 0.2-0.7 0.1-0.2 0-0.4-0.2-0.6-0.4-0.1-0.2-0.1-0.4-0.1-0.6l0.8-4.3-3.2-3c-0.2-0.2-0.3-0.4-0.3-0.7 0-0.2 0.1-0.4 0.2-0.6 0.2-0.2 0.4-0.3 0.6-0.3l4.4-0.7zm21.1 0c0.1-0.2 0.3-0.4 0.5-0.4 0.2-0.1 0.4-0.1 0.7 0 0.2 0 0.4 0.2 0.5 0.4l1.9 3.9 4.4 0.6c0.2 0.1 0.4 0.2 0.6 0.4 0.1 0.2 0.2 0.4 0.2 0.6 0 0.2-0.1 0.5-0.3 0.6l-3.2 3 0.8 4.3c0 0.3 0 0.5-0.1 0.7-0.2 0.2-0.4 0.3-0.6 0.4-0.2 0-0.5 0-0.7-0.1l-3.9-2-3.9 2c-0.2 0.1-0.4 0.1-0.7 0.1-0.2-0.1-0.4-0.2-0.5-0.4-0.1-0.2-0.2-0.4-0.1-0.7l0.7-4.3-3.1-3c-0.2-0.1-0.3-0.4-0.3-0.6 0-0.2 0-0.4 0.2-0.6 0.1-0.2 0.3-0.3 0.6-0.4l4.3-0.6zm21.1 0c0.1-0.2 0.3-0.4 0.5-0.5 0.3 0 0.5 0 0.7 0 0.3 0.1 0.4 0.3 0.5 0.5l2 3.9 4.3 0.6c0.3 0 0.5 0.1 0.6 0.3 0.2 0.2 0.3 0.4 0.2 0.7 0 0.2-0.1 0.4-0.2 0.6l-3.2 3 0.7 4.3c0.1 0.2 0 0.4-0.1 0.7-0.1 0.2-0.3 0.3-0.5 0.3-0.3 0.1-0.5 0.1-0.7 0l-3.9-2-3.9 2c-0.2 0.1-0.5 0.1-0.7 0-0.2 0-0.4-0.1-0.5-0.3-0.2-0.3-0.2-0.5-0.2-0.7l0.8-4.3-3.2-3c-0.2-0.2-0.3-0.4-0.3-0.6 0-0.3 0.1-0.5 0.2-0.7 0.2-0.2 0.4-0.3 0.6-0.3l4.4-0.6zm21.1 0c0.1-0.3 0.3-0.4 0.5-0.5 0.2-0.1 0.5-0.1 0.7 0 0.2 0.1 0.4 0.2 0.5 0.5l1.9 3.8 4.4 0.7c0.2 0 0.4 0.1 0.6 0.3 0.1 0.2 0.2 0.4 0.2 0.6 0 0.3-0.1 0.5-0.3 0.7l-3.1 3 0.7 4.3c0 0.2 0 0.4-0.1 0.6-0.2 0.2-0.3 0.4-0.6 0.4-0.2 0.1-0.4 0-0.7-0.1l-3.9-2-3.9 2c-0.2 0.1-0.4 0.2-0.6 0.1-0.3 0-0.5-0.2-0.6-0.4-0.1-0.2-0.2-0.4-0.1-0.6l0.7-4.3-3.1-3c-0.2-0.2-0.3-0.4-0.3-0.7 0-0.2 0-0.4 0.2-0.6 0.1-0.2 0.3-0.3 0.6-0.3l4.3-0.7z"/>
</svg>